<svg width="43" height="43" viewBox="0 0 43 43" fill="none" xmlns="http://www.w3.org/2000/svg">
<rect width="42.1152" height="42.1195" rx="10" fill="#6366F1"/>
<path d="M21.0488 33.9445C19.7715 33.9445 18.5938 33.6164 17.5156 32.9602C16.4492 32.3039 15.5938 31.4309 14.9492 30.341C14.3164 29.2395 14 28.0324 14 26.7199V25.0676C14 24.9387 14.0586 24.8742 14.1758 24.8742H18.2188C18.3125 24.8742 18.3594 24.9387 18.3594 25.0676V26.7199C18.3594 27.5051 18.623 28.1848 19.1504 28.759C19.6777 29.3215 20.3105 29.6027 21.0488 29.6027C21.7988 29.6027 22.4375 29.3156 22.9648 28.7414C23.4922 28.1555 23.7559 27.4816 23.7559 26.7199C23.7559 25.841 23.1816 25.0734 22.0332 24.4172C21.8457 24.3 21.5996 24.1594 21.2949 23.9953C21.002 23.8195 20.6504 23.6203 20.2402 23.3977C19.8301 23.175 19.4316 22.9582 19.0449 22.7473C18.6582 22.5246 18.2832 22.3137 17.9199 22.1145C16.6074 21.341 15.6289 20.3742 14.9844 19.2141C14.3516 18.0422 14.0352 16.7297 14.0352 15.2766C14.0352 13.9406 14.3633 12.7336 15.0195 11.6555C15.6758 10.5891 16.5312 9.74532 17.5859 9.12422C18.6523 8.49141 19.8066 8.175 21.0488 8.175C22.3262 8.175 23.498 8.49141 24.5645 9.12422C25.6309 9.76875 26.4805 10.6242 27.1133 11.6906C27.7578 12.757 28.0801 13.9523 28.0801 15.2766V18.2297C28.0801 18.3234 28.0332 18.3703 27.9395 18.3703H23.8965C23.8027 18.3703 23.7559 18.3234 23.7559 18.2297L23.7207 15.2766C23.7207 14.4328 23.457 13.7473 22.9297 13.2199C22.4023 12.6926 21.7754 12.4289 21.0488 12.4289C20.3105 12.4289 19.6777 12.7102 19.1504 13.2727C18.623 13.8352 18.3594 14.5031 18.3594 15.2766C18.3594 16.0617 18.5234 16.718 18.8516 17.2453C19.1914 17.7727 19.8066 18.2766 20.6973 18.757C20.791 18.8039 21.0078 18.9211 21.3477 19.1086C21.6875 19.2961 22.0625 19.507 22.4727 19.7414C22.8945 19.9641 23.2754 20.1691 23.6152 20.3566C23.9551 20.5324 24.1602 20.6379 24.2305 20.673C25.4258 21.341 26.3691 22.1613 27.0605 23.134C27.7637 24.1066 28.1152 25.302 28.1152 26.7199C28.1152 28.091 27.7988 29.3215 27.166 30.4113C26.5215 31.5012 25.666 32.3625 24.5996 32.9953C23.5332 33.6281 22.3496 33.9445 21.0488 33.9445Z" fill="white"/>
</svg>
